# xmcd
#
# Track frame offsets:
#	150
#	19407
#	36115
#	51967
#	67155
#	83530
#	109862
#
# Disc length: 1697 seconds
#
# Revision: 8
# Processed by: cddbd v1.4PL0 Copyright (c) Steve Scherf et al.
# Submitted via: audiograbber 1.81.03
#
DISCID=5a069f07
DTITLE=Des'ree - Why Should I Love You?
DYEAR=1992
DGENRE=Rock
TTITLE0=Why Should I Love You?
TTITLE1=Competitive World
TTITLE2=Mind Adventures
TTITLE3=(You Make Me Feel Like) A Natural Woman
TTITLE4=Imagine
TTITLE5=Calling You
TTITLE6=Killing Me Softly With His Sogg
EXTD=
EXTT0=
EXTT1=
EXTT2=
EXTT3=
EXTT4=
EXTT5=
EXTT6=
PLAYORDER=
